HIERARCHY
ROOT Hips
{
    OFFSET 0.000000 0.000000 0.000000
    CHANNELS 6 Xposition Yposition Zposition Zrotation Xrotation Yrotation
    JOINT Spine
    {
        OFFSET -0.000000 14.517291 0.000000
        CHANNELS 3 Zrotation Xrotation Yrotation
        JOINT Spine1
        {
            OFFSET -0.000000 37.558300 0.000000
            CHANNELS 3 Zrotation Xrotation Yrotation
            JOINT Neck
            {
                OFFSET -0.000000 37.404057 3.400369
                CHANNELS 3 Zrotation Xrotation Yrotation
                JOINT Head
                {
                    OFFSET -0.000000 24.785618 -3.540803
                    CHANNELS 3 Zrotation Xrotation Yrotation
                    End Site
                    {
                        OFFSET -0.000000 35.408028 0.000000
                    }
                }
            }
            JOINT LeftShoulder
            {
                OFFSET 6.992933 33.973492 -0.192664
                CHANNELS 3 Zrotation Xrotation Yrotation
                JOINT LeftArm
                {
                    OFFSET 21.527611 0.000000 0.000000
                    CHANNELS 3 Zrotation Xrotation Yrotation
                    JOINT LeftForeArm
                    {
                        OFFSET 56.353916 0.000000 0.000000
                        CHANNELS 3 Zrotation Xrotation Yrotation
                        JOINT LeftHand
                        {
                            OFFSET 47.774071 0.000000 0.000000
                            CHANNELS 3 Zrotation Xrotation Yrotation
                            End Site
                            {
                                OFFSET 26.556021 0.000000 0.000000
                            }
                        }
                    }
                }
            }
            JOINT RightShoulder
            {
                OFFSET -7.065357 33.973492 -0.192664
                CHANNELS 3 Zrotation Xrotation Yrotation
                JOINT RightArm
                {
                    OFFSET -21.527611 0.000000 0.000000
                    CHANNELS 3 Zrotation Xrotation Yrotation
                    JOINT RightForeArm
                    {
                        OFFSET -56.353916 0.000000 0.000000
                        CHANNELS 3 Zrotation Xrotation Yrotation
                        JOINT RightHand
                        {
                            OFFSET -47.774071 0.000000 0.000000
                            CHANNELS 3 Zrotation Xrotation Yrotation
                            End Site
                            {
                                OFFSET -26.556021 0.000000 0.000000
                            }
                        }
                    }
                }
            }
        }
    }
    JOINT LeftUpLeg
    {
        OFFSET 17.704014 0.000000 0.000000
        CHANNELS 3 Zrotation Xrotation Yrotation
        JOINT LeftLeg
        {
            OFFSET -0.000000 -81.181816 0.000000
            CHANNELS 3 Zrotation Xrotation Yrotation
            JOINT LeftFoot
            {
                OFFSET -0.000000 -62.821102 0.000000
                CHANNELS 3 Zrotation Xrotation Yrotation
                JOINT LeftToeBase
                {
                    OFFSET -0.000000 -11.507608 26.556021
                    CHANNELS 3 Zrotation Xrotation Yrotation
                    End Site
                    {
                        OFFSET -0.000000 0.000000 7.081605
                    }
                }
            }
        }
    }
    JOINT RightUpLeg
    {
        OFFSET -17.704014 0.000000 0.000000
        CHANNELS 3 Zrotation Xrotation Yrotation
        JOINT RightLeg
        {
            OFFSET -0.000000 -81.181816 0.000000
            CHANNELS 3 Zrotation Xrotation Yrotation
            JOINT RightFoot
            {
                OFFSET -0.000000 -62.821102 0.000000
                CHANNELS 3 Zrotation Xrotation Yrotation
                JOINT RightToeBase
                {
                    OFFSET -0.000000 -11.507608 26.556021
                    CHANNELS 3 Zrotation Xrotation Yrotation
                    End Site
                    {
                        OFFSET -0.000000 0.000000 7.081605
                    }
                }
            }
        }
    }
}
MOTION
Frames:    11
Frame Time:    0.008333
-7.824486    151.473206    -22.893896    -15.352931    0.345919    -12.566934    -1.383990    1.101717    13.590807    -19.792799    -1.059355    4.344880    2.036475    -13.889544    2.626548    9.666877    -0.700119    3.623359    -0.529245    0.079295    -4.863407    -41.481766    18.520300    -37.683628    -6.796442    -17.595444    -128.372772    -0.508180    -30.455580    -3.811625    -20.233440    -2.657456    5.313435    27.649965    -10.377980    75.571564    -1.561613    -28.142544    13.124191    15.505479    -22.817053    40.257435    33.062073    -31.890787    -15.549055    -14.656175    30.644230    -11.362210    -15.337429    -6.001445    45.551201    0.000000    0.000000    0.000000    20.418751    6.110992    -21.665148    3.831174    31.040024    -6.050029    -1.726318    -25.791119    -6.918858    0.000000    0.000000    0.000000    
-7.779866    151.512527    -22.899967    -15.313357    0.350659    -12.573323    -1.389231    1.107465    13.587298    -19.803171    -1.042135    4.346601    2.036380    -13.892595    2.621378    9.692294    -0.659103    3.618396    -0.511650    0.070497    -4.867284    -41.481724    18.485060    -37.666916    -6.800944    -17.537239    -128.400955    -0.537128    -30.417919    -3.846041    -20.222593    -2.661538    5.324412    27.617451    -10.367078    75.547508    -1.566761    -28.150606    13.131385    15.496625    -22.831377    40.233028    33.012135    -31.854567    -15.566197    -14.634697    30.552399    -11.323412    -15.365941    -5.963933    45.529682    0.000000    0.000000    0.000000    20.369495    6.097973    -21.643847    3.828140    31.022848    -6.024537    -1.738468    -25.746479    -6.958364    0.000000    0.000000    0.000000    
-7.733212    151.547852    -22.906902    -15.273501    0.354948    -12.588926    -1.393858    1.114504    13.584277    -19.800812    -1.019383    4.349544    2.012451    -13.893650    2.623493    9.734411    -0.636676    3.631473    -0.512430    0.057911    -4.847623    -41.460953    18.483425    -37.673954    -6.793811    -17.529757    -128.428299    -0.569535    -30.404736    -3.864342    -20.229252    -2.668624    5.336787    27.613417    -10.383511    75.527237    -1.537367    -28.127028    13.144191    15.475401    -22.814287    40.252106    32.965343    -31.819408    -15.565085    -14.617221    30.474028    -11.307982    -15.372853    -5.912522    45.525787    0.000000    0.000000    0.000000    20.318087    6.083644    -21.624321    3.814918    31.013784    -6.021445    -1.711359    -25.713652    -6.941903    0.000000    0.000000    0.000000    
-7.685615    151.577667    -22.910980    -15.236667    0.353177    -12.604183    -1.400971    1.133686    13.583173    -19.794592    -1.010173    4.350758    2.016166    -13.860554    2.622527    9.738570    -0.644191    3.631253    -0.511408    0.048943    -4.851928    -41.461823    18.441837    -37.661842    -6.785095    -17.481766    -128.450180    -0.603697    -30.350548    -3.876451    -20.235672    -2.657917    5.343360    27.604841    -10.398186    75.503288    -1.522507    -28.100439    13.160192    15.494248    -22.780607    40.257454    32.915703    -31.781368    -15.566604    -14.595049    30.396431    -11.291538    -15.388317    -5.873511    45.530231    0.000000    0.000000    0.000000    20.270166    6.074559    -21.633471    3.792589    31.004112    -6.034156    -1.685055    -25.686760    -6.918817    0.000000    0.000000    0.000000    
-7.630601    151.598816    -22.922152    -15.188388    0.364050    -12.627860    -1.408460    1.138897    13.585370    -19.790848    -0.992504    4.354572    2.038806    -13.846157    2.633485    9.711210    -0.639596    3.632314    -0.502618    0.045348    -4.843523    -41.460079    18.407469    -37.677544    -6.780906    -17.448767    -128.460770    -0.657110    -30.314304    -3.888929    -20.233719    -2.652524    5.341887    27.578066    -10.420237    75.488518    -1.501867    -28.083248    13.165864    15.514290    -22.754192    40.283199    32.870132    -31.762472    -15.560070    -14.597626    30.327282    -11.266325    -15.381533    -5.817280    45.532310    0.000000    0.000000    0.000000    20.207735    6.041451    -21.636772    3.750339    31.025248    -6.000896    -1.659181    -25.684046    -6.893892    0.000000    0.000000    0.000000    
-7.576071    151.613480    -22.925707    -15.146189    0.369927    -12.655452    -1.405670    1.145638    13.593425    -19.792915    -0.970462    4.361060    2.072010    -13.817830    2.639543    9.671940    -0.644991    3.624774    -0.481197    0.045836    -4.834423    -41.474022    18.378428    -37.700054    -6.778109    -17.416626    -128.459381    -0.694385    -30.278458    -3.929267    -20.230104    -2.655669    5.329636    27.608423    -10.458320    75.481949    -1.445250    -28.030832    13.178448    15.501832    -22.705248    40.313587    32.833187    -31.742197    -15.540828    -14.604699    30.277264    -11.284629    -15.364315    -5.786585    45.577137    0.000000    0.000000    0.000000    20.143339    6.022301    -21.611610    3.746192    31.038517    -6.006028    -1.640226    -25.688267    -6.879916    0.000000    0.000000    0.000000    
-7.519489    151.624130    -22.931974    -15.105673    0.372261    -12.687403    -1.409153    1.158044    13.596544    -19.772820    -0.956119    4.364713    2.111351    -13.811667    2.660863    9.623858    -0.599731    3.625530    -0.475981    0.054727    -4.848598    -41.489819    18.328852    -37.700687    -6.772486    -17.393139    -128.461823    -0.713545    -30.247011    -3.932852    -20.233936    -2.662194    5.324866    27.629389    -10.484179    75.471893    -1.407305    -27.982462    13.199751    15.501814    -22.658092    40.316860    32.800327    -31.721498    -15.515850    -14.631316    30.223875    -11.225410    -15.308761    -5.690613    45.561146    0.000000    0.000000    0.000000    20.075315    6.005276    -21.610748    3.731129    31.061398    -6.022829    -1.581335    -25.700844    -6.813252    0.000000    0.000000    0.000000    
-7.463783    151.632660    -22.937445    -15.065570    0.376648    -12.717196    -1.413300    1.162298    13.598972    -19.748838    -0.935276    4.369300    2.147261    -13.776875    2.681905    9.584476    -0.596885    3.632279    -0.454459    0.075674    -4.847671    -41.492607    18.336905    -37.743114    -6.751788    -17.450932    -128.446182    -0.759104    -30.255804    -3.976152    -20.239489    -2.660563    5.328065    27.661104    -10.527340    75.448257    -1.363806    -27.945368    13.231672    15.490966    -22.628216    40.310699    32.772343    -31.708782    -15.489881    -14.667122    30.177128    -11.197195    -15.248822    -5.604691    45.573311    0.000000    0.000000    0.000000    20.007025    5.987229    -21.615589    3.722307    31.082289    -6.023074    -1.565874    -25.718256    -6.771773    0.000000    0.000000    0.000000    
-7.408510    151.636475    -22.942736    -15.025272    0.380729    -12.743021    -1.424733    1.174439    13.591310    -19.717606    -0.931060    4.367641    2.160558    -13.724611    2.698442    9.590899    -0.606352    3.648605    -0.444105    0.073948    -4.863944    -41.514915    18.340775    -37.731339    -6.738752    -17.487259    -128.442734    -0.767216    -30.263683    -3.986382    -20.227310    -2.635574    5.327322    27.665224    -10.562716    75.433952    -1.341532    -27.932919    13.290625    15.471004    -22.629538    40.270813    32.739944    -31.703215    -15.448824    -14.687591    30.146009    -11.181548    -15.203566    -5.527379    45.561581    0.000000    0.000000    0.000000    19.936533    5.969536    -21.638849    3.702800    31.104151    -6.010810    -1.516928    -25.733452    -6.709044    0.000000    0.000000    0.000000    
-7.361237    151.638885    -22.944778    -14.996040    0.383094    -12.764235    -1.432740    1.187182    13.584182    -19.677004    -0.928801    4.365901    2.155479    -13.659915    2.697026    9.634617    -0.617536    3.657115    -0.430472    0.097128    -4.892604    -41.526833    18.333344    -37.737846    -6.732716    -17.526730    -128.438416    -0.742468    -30.288124    -3.949188    -20.218208    -2.602592    5.334208    27.652515    -10.582073    75.405609    -1.360975    -27.952454    13.339945    15.454980    -22.654732    40.257442    32.719349    -31.697344    -15.392348    -14.710679    30.126375    -11.179916    -15.141144    -5.463744    45.571316    0.000000    0.000000    0.000000    19.882582    5.963972    -21.679045    3.684674    31.112740    -6.018019    -1.482673    -25.752077    -6.634333    0.000000    0.000000    0.000000    
-7.309434    151.636826    -22.939507    -14.955420    0.383085    -12.785822    -1.454976    1.195799    13.574770    -19.638111    -0.926297    4.363413    2.203964    -13.607341    2.703531    9.625802    -0.598067    3.648997    -0.414002    0.126518    -4.903665    -41.524731    18.327927    -37.759945    -6.716241    -17.558380    -128.413971    -0.724864    -30.280788    -3.925153    -20.181040    -2.579792    5.317928    27.653921    -10.592008    75.400215    -1.373194    -27.951696    13.369595    15.497655    -22.628344    40.321941    32.679638    -31.689203    -15.336050    -14.726923    30.103727    -11.123789    -15.067287    -5.374312    45.520844    0.000000    0.000000    0.000000    19.814140    5.965449    -21.724178    3.670763    31.028053    -6.021595    -1.450588    -25.718058    -6.542768    0.000000    0.000000    0.000000    
